<svg xmlns="http://www.w3.org/2000/svg" xmlns:xlink="http://www.w3.org/1999/xlink" version="1.1"
    width="1000" height="1000" viewBox="0 0 1000 1000" xml:space="preserve">
<defs>
</defs>
<rect x="0" y="0" width="100%" height="100%" fill="rgba(255,255,255,0)"/>
<g transform="matrix(0.1032 0 0 -0.1032 528.8097 500.0291)" id="493473">
<path class="pathStyle" vector-effect="non-scaling-stroke" transform=" translate(-6399.2209, -11699.9973)" d="M 5444 16181 c -50 -23 -99 -81 -119 -141 c -8 -25 -161 -578 -340 -1230 c -179 -652 -350 -1273 -380 -1380 c -70 -253 -322 -1170 -481 -1749 c -132 -483 -139 -523 -108 -614 c 20 -61 89 -132 140 -146 c 27 -7 339 -11 972 -11 c 567 0 932 -4 932 -9 c 0 -5 -266 -763 -591 -1683 c -401 -1138 -592 -1691 -596 -1729 c -15 -151 94 -290 227 -289 c 36 1 101 33 131 66 c 15 16 226 301 470 634 c 243 333 558 763 699 955 c 141 193 517 706 835 1140 c 318 435 777 1060 1019 1390 c 529 722 520 709 536 775 c 29 122 -26 262 -124 309 c -42 21 -55 21 -964 21 c -507 0 -922 3 -922 7 c 0 4 135 293 299 642 c 852 1813 1178 2506 1224 2606 c 39 84 52 124 55 171 c 8 119 -43 220 -131 263 c -43 21 -44 21 -1393 21 c -1291 0 -1351 -1 -1390 -19 z" stroke-linecap="round"/>
</g>
<style>
    .pathStyle{
        stroke: none; 
        stroke-width: 1; 
        stroke-dasharray: none; 
        stroke-linecap: butt; 
        stroke-dashoffset: 0; 
        stroke-linejoin: miter; 
        stroke-miterlimit: 4; 
        is-custom-font: none; 
        font-file-url: none; 
        fill: rgb(0,0,0); 
        fill-rule: nonzero; 
        opacity: 1;
    }
    @media (prefers-color-scheme:dark){
        .pathStyle{
            fill: rgb(255, 255, 255);
        }
    }
  </style>
</svg>