<svg xmlns="http://www.w3.org/2000/svg" version="1.0" width="256" height="256"
  viewBox="0 0 1500 1920">

  <g transform="translate(0.000000,1920.000000) scale(0.100000,-0.100000)" fill="#000000"
    stroke="none">
    <path
      d="M5444 16181 c-50 -23 -99 -81 -119 -141 -8 -25 -161 -578 -340 -1230 -179 -652 -350 -1273 -380 -1380 -70 -253 -322 -1170 -481 -1749 -132 -483 -139 -523 -108 -614 20 -61 89 -132 140 -146 27 -7 339 -11 972 -11 567 0 932 -4 932 -9 0 -5 -266 -763 -591 -1683 -401 -1138 -592 -1691 -596 -1729 -15 -151 94 -290 227 -289 36 1 101 33 131 66 15 16 226 301 470 634 243 333 558 763 699 955 141 193 517 706 835 1140 318 435 777 1060 1019 1390 529 722 520 709 536 775 29 122 -26 262 -124 309 -42 21 -55 21 -964 21 -507 0 -922 3 -922 7 0 4 135 293 299 642 852 1813 1178 2506 1224 2606 39 84 52 124 55 171 8 119 -43 220 -131 263 -43 21 -44 21 -1393 21 -1291 0 -1351 -1 -1390 -19z" />
  </g>
  <style>
    @media (prefers-color-scheme:dark){:root{filter:invert(100%)}}
  </style>
</svg>